<svg width="178" height="61" viewBox="0 0 178 61" fill="none" xmlns="http://www.w3.org/2000/svg">
<rect width="178" height="61" fill="#E5E5E5"/>
<rect width="1440" height="7219" transform="translate(-936 -7085)" fill="white"/>
<rect x="-936" y="-469" width="1440" height="603" fill="#0E1F33"/>
<g clip-path="url(#clip0)">
<path d="M7.25316 0H170.556C174.539 0 177.776 3.2818 177.776 7.32V53.68C177.776 57.7182 174.539 61 170.556 61H7.25316C3.26988 61 0.0327148 57.7182 0.0327148 53.68V7.32C0.0327148 3.2818 3.26988 0 7.25316 0Z" fill="black"/>
<path d="M38.9387 29.1093C38.9026 24.7417 42.4647 22.6189 42.6212 22.5213C40.5994 19.5445 37.4706 19.1297 36.3755 19.0931C33.752 18.8125 31.2008 20.6913 29.865 20.6913C28.5052 20.6913 26.4353 19.1297 24.221 19.1663C21.369 19.2151 18.6854 20.8865 17.2292 23.4973C14.2087 28.8043 16.4591 36.6123 19.3593 40.9067C20.8154 43.0051 22.5002 45.3597 24.7265 45.2743C26.8926 45.1889 27.7109 43.8713 30.3223 43.8713C32.9217 43.8713 33.6798 45.2743 35.9422 45.2255C38.2769 45.1889 39.733 43.1149 41.141 40.9921C42.8137 38.5887 43.4876 36.2097 43.5117 36.0877C43.4515 36.0633 38.9869 34.3309 38.9387 29.1093ZM34.6666 16.2749C35.8339 14.7987 36.6282 12.7857 36.4116 10.7361C34.7268 10.8093 32.6088 11.9195 31.3934 13.3713C30.3223 14.6523 29.3596 16.7385 29.6003 18.7027C31.5017 18.8491 33.4512 17.7267 34.6666 16.2749ZM70.3717 44.9693H67.3392L65.6785 39.6745H59.9021L58.3256 44.9693H55.3773L61.0935 26.9499H64.6315L70.3717 44.9693ZM65.1851 37.4541L63.6808 32.7571C63.5244 32.2691 63.2235 31.1467 62.7903 29.3655H62.7301C62.5496 30.1341 62.2728 31.2687 61.8877 32.7571L60.4075 37.4541H65.1851ZM85.0654 38.3203C85.0654 40.5285 84.4757 42.2731 83.2843 43.5541C82.2253 44.7009 80.9016 45.2621 79.3371 45.2621C77.6403 45.2621 76.4249 44.6521 75.6788 43.4199V50.2397H72.8267V36.2463C72.8267 34.8555 72.7906 33.4403 72.7184 31.9763H75.2215L75.3779 34.0381H75.4261C76.3768 32.4887 77.8209 31.7079 79.7463 31.7079C81.2626 31.7079 82.5141 32.3179 83.525 33.5257C84.5599 34.7457 85.0654 36.3317 85.0654 38.3203ZM82.1652 38.4179C82.1652 37.1491 81.8884 36.1121 81.3228 35.2947C80.709 34.4407 79.8787 34.0137 78.8438 34.0137C78.1458 34.0137 77.508 34.2577 76.9303 34.7213C76.3647 35.1971 75.9796 35.8071 75.8112 36.5757C75.7269 36.9295 75.6788 37.2223 75.6788 37.4541V39.6257C75.6788 40.5651 75.9676 41.3703 76.5332 42.0169C77.0988 42.6635 77.8449 42.9929 78.7595 42.9929C79.8305 42.9929 80.6609 42.5659 81.2626 41.7363C81.8643 40.8945 82.1652 39.7965 82.1652 38.4179ZM99.7951 38.3203C99.7951 40.5285 99.2054 42.2731 98.014 43.5541C96.955 44.7009 95.6313 45.2621 94.0669 45.2621C92.3701 45.2621 91.1546 44.6521 90.4085 43.4199V50.2397H87.5564V36.2463C87.5564 34.8555 87.5203 33.4403 87.4481 31.9763H89.9512L90.1076 34.0381H90.1558C91.1065 32.4887 92.5506 31.7079 94.476 31.7079C95.9923 31.7079 97.2439 32.3179 98.2547 33.5257C99.2896 34.7457 99.7951 36.3317 99.7951 38.3203ZM96.8949 38.4179C96.8949 37.1491 96.6181 36.1121 96.0525 35.2947C95.4388 34.4407 94.6084 34.0137 93.5735 34.0137C92.8755 34.0137 92.2377 34.2577 91.66 34.7213C91.0944 35.1971 90.7214 35.8071 90.5409 36.5757C90.4566 36.9295 90.4085 37.2223 90.4085 37.4541V39.6257C90.4085 40.5651 90.6973 41.3703 91.2629 42.0169C91.8285 42.6635 92.5746 42.9929 93.4892 42.9929C94.5603 42.9929 95.4026 42.5659 95.9923 41.7363C96.6061 40.8945 96.8949 39.7965 96.8949 38.4179ZM116.282 39.9185C116.282 41.4557 115.752 42.7001 114.705 43.6639C113.55 44.7131 111.937 45.2377 109.868 45.2377C107.954 45.2377 106.426 44.8595 105.271 44.1153L105.932 41.7119C107.184 42.4561 108.556 42.8343 110.048 42.8343C111.119 42.8343 111.962 42.5903 112.551 42.1023C113.153 41.6143 113.454 40.9555 113.454 40.1381C113.454 39.4061 113.201 38.7961 112.72 38.2959C112.226 37.7957 111.408 37.3321 110.265 36.9051C107.124 35.7217 105.571 34.0015 105.571 31.7445C105.571 30.2683 106.125 29.0605 107.22 28.1089C108.315 27.1695 109.771 26.6937 111.588 26.6937C113.201 26.6937 114.549 26.9743 115.62 27.5477L114.898 29.8901C113.887 29.3411 112.756 29.0605 111.48 29.0605C110.481 29.0605 109.687 29.3167 109.121 29.8047C108.652 30.2561 108.411 30.7929 108.411 31.4395C108.411 32.1471 108.688 32.7449 109.23 33.1963C109.699 33.6233 110.566 34.0869 111.817 34.5871C113.345 35.2093 114.465 35.9413 115.187 36.7831C115.921 37.6249 116.282 38.6741 116.282 39.9185ZM125.716 34.1479H122.576V40.4553C122.576 42.0535 123.129 42.8587 124.236 42.8587C124.742 42.8587 125.163 42.8099 125.5 42.7245L125.584 44.9205C125.019 45.1279 124.284 45.2377 123.37 45.2377C122.239 45.2377 121.372 44.8839 120.734 44.1885C120.097 43.4931 119.784 42.3219 119.784 40.6871V34.1357H117.918V31.9763H119.784V29.5973L122.576 28.7433V31.9763H125.716V34.1479ZM139.845 38.3691C139.845 40.3699 139.279 42.0047 138.16 43.2857C136.98 44.6033 135.416 45.2621 133.466 45.2621C131.589 45.2621 130.085 44.6277 128.966 43.3711C127.847 42.1145 127.293 40.5163 127.293 38.5887C127.293 36.5757 127.871 34.9287 129.014 33.6477C130.169 32.3667 131.722 31.7201 133.671 31.7201C135.548 31.7201 137.065 32.3545 138.208 33.6233C139.303 34.8433 139.845 36.4293 139.845 38.3691ZM136.896 38.4301C136.896 37.2345 136.643 36.2219 136.138 35.3679C135.536 34.3309 134.682 33.8185 133.575 33.8185C132.432 33.8185 131.553 34.3309 130.963 35.3679C130.446 36.2219 130.205 37.2589 130.205 38.4911C130.205 39.6867 130.458 40.7115 130.963 41.5533C131.577 42.5903 132.444 43.1027 133.551 43.1027C134.634 43.1027 135.488 42.5781 136.114 41.5289C136.631 40.6505 136.896 39.6257 136.896 38.4301ZM149.111 34.5139C148.834 34.4651 148.533 34.4407 148.208 34.4407C147.209 34.4407 146.427 34.8189 145.886 35.5875C145.416 36.2585 145.176 37.1247 145.176 38.1495V44.9693H142.324V36.0633C142.324 34.5627 142.299 33.1963 142.239 31.9763H144.718L144.827 34.4651H144.911C145.212 33.6111 145.681 32.9157 146.331 32.4033C146.969 31.9397 147.655 31.7079 148.389 31.7079C148.653 31.7079 148.894 31.7323 149.099 31.7567L149.111 34.5139ZM161.843 37.8567C161.843 38.3691 161.807 38.8083 161.735 39.1621H153.19C153.226 40.4431 153.636 41.4313 154.43 42.1023C155.152 42.7001 156.078 43.0051 157.222 43.0051C158.485 43.0051 159.641 42.7977 160.676 42.3951L161.121 44.3959C159.905 44.9327 158.473 45.2011 156.825 45.2011C154.839 45.2011 153.275 44.6033 152.143 43.4199C151.012 42.2365 150.447 40.6383 150.447 38.6497C150.447 36.6977 150.976 35.0629 152.035 33.7575C153.142 32.3667 154.634 31.6713 156.512 31.6713C158.353 31.6713 159.761 32.3667 160.7 33.7575C161.458 34.8799 161.843 36.2341 161.843 37.8567ZM159.123 37.1125C159.147 36.2585 158.955 35.5143 158.57 34.8921C158.076 34.0869 157.318 33.6843 156.307 33.6843C155.381 33.6843 154.622 34.0747 154.045 34.8555C153.575 35.4777 153.287 36.2341 153.202 37.1003L159.123 37.1125Z" fill="white"/>
<path d="M63.8129 20.5083H62.3207L61.5024 17.9097H58.6623L57.8801 20.5083H56.436L59.24 11.6511H60.9729L63.8129 20.5083ZM61.2497 16.8117L60.5156 14.4937C60.4434 14.2619 60.299 13.7007 60.0703 12.8223H60.0463C59.95 13.2005 59.8296 13.7495 59.6251 14.4937L58.903 16.8117H61.2497ZM70.8408 14.1155L68.4581 20.5083H67.0982L64.7877 14.1155H66.2919L67.363 17.4949C67.5435 18.0561 67.6999 18.5929 67.8203 19.1053H67.8564C67.9647 18.6417 68.1211 18.1049 68.3137 17.4949L69.3727 14.1155H70.8408ZM75.9192 20.5083L75.8109 19.7763H75.7748C75.3416 20.3619 74.7278 20.6547 73.9336 20.6547C72.8024 20.6547 72.0081 19.8495 72.0081 18.7759C72.0081 17.2021 73.3559 16.3847 75.6906 16.3847V16.2627C75.6906 15.4209 75.2453 15.0061 74.3788 15.0061C73.7531 15.0061 73.2115 15.1647 72.7302 15.4819L72.4414 14.5547C73.019 14.1887 73.7531 14.0057 74.6075 14.0057C76.2562 14.0057 77.0865 14.8841 77.0865 16.6531V19.0077C77.0865 19.6543 77.1106 20.1545 77.1828 20.5327L75.9192 20.5083ZM75.7267 17.3241C74.1743 17.3241 73.392 17.7023 73.392 18.6173C73.392 19.2883 73.7892 19.6177 74.3548 19.6177C75.0648 19.6177 75.7267 19.0687 75.7267 18.3123V17.3241ZM80.2033 13.0663C79.734 13.0663 79.373 12.7003 79.373 12.2123C79.373 11.7243 79.746 11.3705 80.2274 11.3705C80.7088 11.3705 81.0939 11.7243 81.0818 12.2123C81.0818 12.7247 80.7208 13.0663 80.2033 13.0663ZM79.5294 14.1155H80.9254V20.4961H79.5294V14.1155ZM83.4164 11.1875H84.8124V20.4961H83.4164V11.1875ZM90.7572 20.5083L90.6489 19.7763H90.6128C90.1796 20.3619 89.5658 20.6547 88.7716 20.6547C87.6404 20.6547 86.8461 19.8495 86.8461 18.7759C86.8461 17.2021 88.194 16.3847 90.5286 16.3847V16.2627C90.5286 15.4209 90.0833 15.0061 89.2169 15.0061C88.5911 15.0061 88.0496 15.1647 87.5682 15.4819L87.2794 14.5425C87.857 14.1765 88.5911 13.9935 89.4455 13.9935C91.0942 13.9935 91.9245 14.8719 91.9245 16.6409V18.9955C91.9245 19.6421 91.9486 20.1423 92.0088 20.5205H90.7572V20.5083ZM90.5647 17.3241C89.0123 17.3241 88.2301 17.7023 88.2301 18.6173C88.2301 19.2883 88.6272 19.6177 89.1928 19.6177C89.9028 19.6177 90.5647 19.0687 90.5647 18.3123V17.3241ZM97.6046 20.6547C96.7141 20.6547 96.0522 20.2765 95.619 19.5201H95.5949L95.5107 20.5083H94.3193C94.3554 19.9959 94.3674 19.4225 94.3674 18.7881V11.1875H95.7754V15.0549H95.7995C96.2207 14.3473 96.8826 13.9935 97.8092 13.9935C99.3255 13.9935 100.384 15.3111 100.384 17.2265C100.384 19.2029 99.2051 20.6547 97.6046 20.6547ZM97.3158 15.1037C96.5095 15.1037 95.7754 15.8113 95.7754 16.7995V17.9219C95.7754 18.8003 96.4373 19.5201 97.2917 19.5201C98.3387 19.5201 98.9645 18.6539 98.9645 17.2753C98.9645 15.9821 98.3146 15.1037 97.3158 15.1037ZM102.454 11.1875H103.85V20.4961H102.454V11.1875ZM111.468 17.6535H107.268C107.292 18.8613 108.086 19.5445 109.254 19.5445C109.879 19.5445 110.445 19.4347 110.95 19.2395L111.167 20.2277C110.577 20.4961 109.879 20.6181 109.061 20.6181C107.087 20.6181 105.92 19.3615 105.92 17.3973C105.92 15.4453 107.112 13.9691 108.905 13.9691C110.505 13.9691 111.528 15.1769 111.528 17.0069C111.528 17.2631 111.516 17.4827 111.468 17.6535ZM110.192 16.6409C110.192 15.6527 109.699 14.9573 108.808 14.9573C108.002 14.9573 107.376 15.6649 107.28 16.6409H110.192ZM119.952 20.6547C118.111 20.6547 116.919 19.2639 116.919 17.3729C116.919 15.3965 118.135 13.9935 120.06 13.9935C121.877 13.9935 123.093 15.3233 123.093 17.2631C123.093 19.2517 121.841 20.6547 119.952 20.6547ZM120.012 15.0305C119.001 15.0305 118.351 15.9943 118.351 17.3241C118.351 18.6417 119.013 19.5933 120 19.5933C120.987 19.5933 121.649 18.5685 121.649 17.2875C121.637 15.9943 120.999 15.0305 120.012 15.0305ZM130.614 20.5083H129.218V16.8361C129.218 15.7015 128.785 15.1403 127.943 15.1403C127.112 15.1403 126.547 15.8601 126.547 16.7019V20.4961H125.151V15.9455C125.151 15.3843 125.139 14.7743 125.102 14.1155H126.33L126.39 15.1037H126.426C126.799 14.4205 127.569 13.9813 128.424 13.9813C129.748 13.9813 130.614 15.0061 130.614 16.6775V20.5083ZM139.772 15.1891H138.232V18.2879C138.232 19.0809 138.508 19.4713 139.05 19.4713C139.291 19.4713 139.507 19.4469 139.676 19.4103L139.712 20.4839C139.435 20.5937 139.074 20.6425 138.629 20.6425C137.522 20.6425 136.872 20.0203 136.872 18.4099V15.1891H135.957V14.1277H136.872V12.9565L138.244 12.5295V14.1155H139.784V15.1891H139.772ZM147.185 20.5083H145.789V16.8605C145.789 15.7137 145.356 15.1403 144.513 15.1403C143.791 15.1403 143.117 15.6405 143.117 16.6531V20.4961H141.722V11.1875H143.117V15.0183H143.142C143.587 14.3229 144.213 13.9813 145.031 13.9813C146.367 13.9813 147.185 15.0305 147.185 16.7019V20.5083ZM154.333 17.6535H150.133C150.157 18.8613 150.952 19.5445 152.119 19.5445C152.745 19.5445 153.31 19.4347 153.816 19.2395L154.032 20.2277C153.443 20.4961 152.745 20.6181 151.926 20.6181C149.953 20.6181 148.786 19.3615 148.786 17.3973C148.786 15.4453 149.977 13.9691 151.77 13.9691C153.371 13.9691 154.393 15.1769 154.393 17.0069C154.393 17.2631 154.381 17.4827 154.333 17.6535ZM153.058 16.6409C153.058 15.6527 152.564 14.9573 151.674 14.9573C150.867 14.9573 150.23 15.6649 150.145 16.6409H153.058Z" fill="white"/>
</g>
<defs>
<clipPath id="clip0">
<rect width="177.809" height="61" fill="white"/>
</clipPath>
</defs>
</svg>
