<svg width="40" height="40" viewBox="0 0 40 40" fill="none" xmlns="http://www.w3.org/2000/svg">
<rect width="40" height="40" fill="#E5E5E5"/>
<rect width="1440" height="4091" transform="translate(-150 -2059)" fill="white"/>
<circle cx="20" cy="20" r="20" fill="#E873A8" fill-opacity="0.18"/>
<path fill-rule="evenodd" clip-rule="evenodd" d="M27.8285 14.4116C27.6094 14.1908 27.3112 14.0665 27.0001 14.0665C26.6891 14.0665 26.3909 14.1908 26.1718 14.4116L17.4801 23.115L13.8285 19.4516C13.5221 19.1557 13.0811 19.0457 12.6717 19.163C12.2622 19.2804 11.9465 19.6072 11.8433 20.0205C11.7402 20.4338 11.8654 20.8707 12.1718 21.1666L16.6518 25.6466C16.8709 25.8675 17.1691 25.9917 17.4801 25.9917C17.7912 25.9917 18.0894 25.8675 18.3085 25.6466L27.8285 16.1266C28.0679 15.9058 28.2041 15.5949 28.2041 15.2691C28.2041 14.9434 28.0679 14.6325 27.8285 14.4116Z" fill="#E873A8"/>
</svg>
