<svg width="185" height="61" viewBox="0 0 185 61" fill="none" xmlns="http://www.w3.org/2000/svg">
<rect width="185" height="61" fill="#E5E5E5"/>
<rect width="1440" height="7219" transform="translate(-1155 -7085)" fill="white"/>
<rect x="-1155" y="-469" width="1440" height="603" fill="#0E1F33"/>
<g clip-path="url(#clip0)">
<path d="M184.638 52.7559C184.638 57.3082 180.991 61 176.493 61H8.48723C3.9886 61.0004 0.340332 57.3085 0.340332 52.7559V8.24339C0.340332 3.69148 3.9886 0 8.48723 0H176.493C180.991 0 184.638 3.69148 184.638 8.24339V52.7559H184.638Z" fill="black"/>
<path d="M14.1643 11.7437V53.0528L34.751 32.3984L14.1643 11.7437Z" fill="url(#paint0_linear)"/>
<path d="M40.2801 26.8505L31.97 21.996L14.1643 11.5935V11.7437L34.751 32.3985L40.2801 26.8505Z" fill="url(#paint1_linear)"/>
<path d="M14.1643 53.0533V53.2036L31.97 42.8007L40.2798 37.9462L34.751 32.3989L14.1643 53.0533Z" fill="url(#paint2_linear)"/>
<path d="M40.2799 26.8506L34.7507 32.3985L40.2795 37.9458L49.7765 32.3982L40.2799 26.8506Z" fill="url(#paint3_linear)"/>
<path d="M143.77 40.4735C142.996 40.4735 142.291 40.3291 141.652 40.0407C141.013 39.752 140.476 39.3079 140.043 38.7092H139.913C140 39.4107 140.043 40.0757 140.043 40.7039V45.6474H138.246V28.2407H139.708L139.956 29.885H140.043C140.506 29.2269 141.044 28.7526 141.657 28.4602C142.271 28.1678 142.976 28.0216 143.769 28.0216C145.344 28.0216 146.559 28.5663 147.415 29.655C148.27 30.7436 148.699 32.2713 148.699 34.2364C148.699 36.2096 148.263 37.742 147.394 38.8354C146.524 39.9277 145.316 40.4735 143.77 40.4735ZM143.51 29.5671C142.296 29.5671 141.419 29.9073 140.877 30.5865C140.336 31.2661 140.058 32.3479 140.043 33.8314V34.2365C140.043 35.9248 140.321 37.1324 140.877 37.8598C141.434 38.5871 142.326 38.9499 143.553 38.9499C144.579 38.9499 145.383 38.5302 145.964 37.6899C146.545 36.8498 146.836 35.6915 146.836 34.2146C146.836 32.7172 146.545 31.5673 145.964 30.7673C145.383 29.9667 144.564 29.5671 143.51 29.5671ZM152.862 40.254H151.064V23.1984H152.862V40.254ZM163.201 40.254L162.843 38.5441H162.757C162.165 39.2973 161.574 39.8074 160.986 40.0732C160.397 40.3404 159.662 40.4735 158.781 40.4735C157.604 40.4735 156.682 40.1665 156.013 39.5529C155.345 38.9393 155.011 38.0665 155.011 36.9333C155.011 34.5077 156.929 33.236 160.764 33.1186L162.779 33.0526V32.3074C162.779 31.3645 162.579 30.6682 162.178 30.2194C161.777 29.7694 161.135 29.5449 160.255 29.5449C159.265 29.5449 158.146 29.8519 156.897 30.4655L156.344 29.0735C156.929 28.7519 157.57 28.5 158.267 28.3173C158.964 28.1346 159.662 28.0431 160.363 28.0431C161.779 28.0431 162.828 28.3607 163.51 28.9966C164.192 29.6324 164.534 30.6518 164.534 32.0551V40.2537H163.201V40.254H163.201ZM159.139 38.9721C160.258 38.9721 161.137 38.6614 161.776 38.0406C162.415 37.4196 162.735 36.5498 162.735 35.4312V34.3462L160.936 34.4224C159.507 34.4745 158.476 34.6984 157.844 35.0976C157.212 35.4957 156.896 36.1152 156.896 36.9555C156.896 37.6129 157.092 38.1139 157.487 38.4565C157.88 38.8004 158.431 38.9721 159.139 38.9721ZM165.578 28.2407H167.505L170.105 35.0917C170.676 36.6558 171.03 37.7846 171.168 38.4791H171.254C171.348 38.1058 171.545 37.4689 171.844 36.5654C172.144 35.6627 173.125 32.8885 174.785 28.2407H176.714L171.612 41.9205C171.106 43.2724 170.516 44.2317 169.84 44.799C169.165 45.3648 168.336 45.6474 167.355 45.6474C166.806 45.6474 166.264 45.5854 165.729 45.4615V44.0038C166.126 44.0913 166.571 44.1354 167.062 44.1354C168.297 44.1354 169.177 43.4339 169.705 42.0307L170.366 40.3211L165.578 28.2407ZM110.458 29.3571C111.029 29.8351 112.221 30.8391 112.221 32.75C112.221 34.6083 111.178 35.4895 110.135 36.3175C109.812 36.6438 109.439 36.9967 109.439 37.5502C109.439 38.1018 109.812 38.4037 110.086 38.6301L110.98 39.3323C112.073 40.2624 113.065 41.1173 113.065 42.8517C113.065 45.2135 110.805 47.5997 106.534 47.5997C102.933 47.5997 101.196 45.8665 101.196 44.006C101.196 43.1018 101.64 41.821 103.108 40.9405C104.646 39.9856 106.734 39.8613 107.851 39.784C107.502 39.3323 107.106 38.8547 107.106 38.077C107.106 37.6505 107.23 37.3989 107.354 37.0959C107.08 37.1214 106.807 37.1466 106.558 37.1466C103.927 37.1466 102.437 35.1614 102.437 33.2024C102.437 32.0463 102.959 30.7641 104.026 29.8354C105.442 28.6546 107.13 28.4529 108.472 28.4529H113.587L111.997 29.3575H110.458V29.3571H110.458ZM108.694 40.5143C108.496 40.4881 108.371 40.4881 108.124 40.4881C107.901 40.4881 106.558 40.5395 105.516 40.892C104.97 41.0915 103.38 41.6945 103.38 43.4795C103.38 45.2627 105.095 46.5461 107.752 46.5461C110.134 46.5461 111.402 45.3878 111.402 43.8314C111.402 42.5473 110.583 41.8717 108.694 40.5143ZM109.415 35.7393C109.986 35.1607 110.035 34.3575 110.035 33.9046C110.035 32.0959 108.967 29.2816 106.907 29.2816C106.26 29.2816 105.565 29.6079 105.168 30.1111C104.746 30.6386 104.621 31.3164 104.621 31.9705C104.621 33.6538 105.59 36.4433 107.726 36.4433C108.347 36.4433 109.016 36.1418 109.415 35.7393ZM94.8242 40.1122C90.8827 40.1122 88.7752 37.0011 88.7752 34.1909C88.7752 30.904 91.4275 28.0956 95.1976 28.0956C98.8404 28.0956 101.122 30.9795 101.122 34.0158C101.122 36.9749 98.8667 40.1122 94.8242 40.1122ZM97.923 38.0803C98.519 37.2767 98.6678 36.2738 98.6678 35.2945C98.6678 33.0861 97.6265 28.8722 94.5518 28.8722C93.7339 28.8722 92.916 29.1989 92.3211 29.7268C91.354 30.6036 91.1796 31.708 91.1796 32.7879C91.1796 35.2697 92.3946 39.3578 95.3954 39.3578C96.3621 39.3578 97.354 38.882 97.923 38.0803ZM81.386 40.1122C77.4437 40.1122 75.3358 37.0011 75.3358 34.1909C75.3358 30.904 77.9892 28.0956 81.7582 28.0956C85.4022 28.0956 87.683 30.9795 87.683 34.0158C87.6834 36.9749 85.4278 40.1122 81.386 40.1122ZM84.4855 38.0803C85.0804 37.2767 85.2296 36.2738 85.2296 35.2945C85.2296 33.0861 84.1875 28.8722 81.1129 28.8722C80.2953 28.8722 79.4767 29.1989 78.8821 29.7268C77.915 30.6036 77.7417 31.708 77.7417 32.7879C77.7417 35.2697 78.956 39.3578 81.9571 39.3578C82.9242 39.3578 83.9155 38.882 84.4855 38.0803ZM73.442 39.7188L69.8769 40.5511C68.4306 40.7786 67.1349 40.9788 65.7646 40.9788C58.8839 40.9788 56.2676 35.8585 56.2676 31.848C56.2676 26.9556 59.9811 22.4167 66.3382 22.4167C67.6848 22.4167 68.9798 22.618 70.1512 22.9461C72.0205 23.4759 72.8929 24.1311 73.4416 24.5099L71.3719 26.5024L70.5 26.7032L71.123 25.6941C70.2758 24.8624 68.729 23.3242 65.7887 23.3242C61.8501 23.3242 58.8832 26.3521 58.8832 30.7655C58.8832 35.5059 62.2738 39.9703 67.7067 39.9703C69.3037 39.9703 70.1245 39.643 70.8729 39.3396V35.2799L67.1097 35.4815L69.103 34.3958H74.3878L73.7403 35.0262C73.5645 35.1782 73.5404 35.2292 73.4907 35.429C73.4647 35.6565 73.4413 36.3886 73.4413 36.6406V39.7188H73.442V39.7188Z" fill="#F9F9F9"/>
<path d="M118.337 38.9924C117.514 38.9166 117.341 38.766 117.341 37.7812V23.5061C117.346 23.4518 117.35 23.396 117.355 23.3435C117.455 22.4611 117.704 22.3098 118.478 21.8552H114.912L113.042 22.7634H114.948V22.7747L114.946 22.7656V38.3369C114.946 38.8404 114.848 38.9169 114.274 39.6727H118.686L119.609 39.1193C119.185 39.0671 118.761 39.0427 118.337 38.9924ZM128.48 39.2243C128.208 39.3749 127.936 39.551 127.665 39.6753C126.846 40.0508 126.005 40.1514 125.261 40.1514C124.471 40.1514 123.232 40.0997 121.968 39.174C120.212 37.9205 119.445 35.7665 119.445 33.8885C119.445 30.0067 122.564 28.1032 125.113 28.1032C126.005 28.1032 126.922 28.3282 127.664 28.8051C128.901 29.6301 129.223 30.7071 129.395 31.2835L123.579 33.664L121.672 33.8141C122.29 36.9952 124.419 38.8473 126.772 38.8473C128.034 38.8473 128.95 38.3974 129.792 37.9723L128.48 39.2243ZM126.153 31.7589C126.623 31.5843 126.87 31.4334 126.87 31.083C126.87 30.0818 125.757 28.929 124.419 28.929C123.428 28.929 121.573 29.7059 121.573 32.4105C121.573 32.8363 121.622 33.287 121.648 33.7394L126.153 31.7589ZM130.869 28.2746V29.9272H130.67V28.2746H130.13V28.1032H131.409V28.2746H130.869ZM133.096 29.9272V28.2592H133.087L132.584 29.9272H132.429L131.921 28.2592H131.915V29.9272H131.734V28.1032H132.043L132.502 29.5776H132.509L132.961 28.1032H133.274V29.9272H133.096Z" fill="#F9F9F9"/>
<path d="M61.2184 17.5057H59.9796C59.9796 17.3332 59.8621 16.845 59.6272 16.0407H57.8389C57.5964 16.8319 57.475 17.32 57.475 17.5057H56.3101C56.3101 17.4039 56.6113 16.5683 57.2137 14.9991C57.8162 13.4299 58.1174 12.5654 58.1174 12.4065H59.5807C59.5807 12.5552 59.8535 13.4069 60.3994 14.9619C60.9452 16.5169 61.2184 17.3646 61.2184 17.5057ZM59.4301 15.2926C58.9887 13.9454 58.7682 13.217 58.7682 13.1072H58.7062C58.7062 13.209 58.4778 13.9374 58.0212 15.2926H59.4301ZM66.2096 17.5057H65.2536C65.2536 17.3985 64.8987 16.8333 64.1892 15.8099C63.4462 14.7315 63.0229 13.9943 62.9198 13.5973H62.8579C62.9224 14.1689 62.9548 14.6859 62.9548 15.1482C62.9548 15.7932 62.9728 16.5793 63.0089 17.506H62.0565C62.0951 16.6967 62.1146 15.8078 62.1146 14.8391C62.1146 13.8861 62.0951 13.0752 62.0565 12.4069H63.2059C63.2059 12.5454 63.5245 13.0978 64.1619 14.0636C64.8404 15.0895 65.2302 15.7855 65.3308 16.1512H65.3888C65.3269 15.569 65.2958 15.0469 65.2958 14.5846C65.2958 13.8773 65.2778 13.151 65.2418 12.4069H66.2096C66.1732 13.0544 66.1555 13.8652 66.1555 14.8391C66.1552 15.8202 66.1732 16.709 66.2096 17.5057ZM71.8194 14.7796C71.8194 15.5212 71.5845 16.1687 71.115 16.7222C70.6451 17.276 69.9872 17.5524 69.1408 17.5524C68.7588 17.5524 68.2324 17.5366 67.5615 17.5053C67.595 16.7167 67.6119 15.8274 67.6119 14.8383C67.6119 13.8882 67.595 13.0774 67.5615 12.4061H68.2389C68.3499 12.4061 68.5149 12.4021 68.7344 12.3945C68.9534 12.3868 69.0968 12.3828 69.1638 12.3828C70.0953 12.3828 70.7706 12.618 71.1903 13.0879C71.6097 13.5579 71.8194 14.1215 71.8194 14.7796ZM70.7629 14.948C70.7629 14.4467 70.6184 14.0245 70.3295 13.6807C70.0405 13.3376 69.5991 13.1659 69.0056 13.1659C68.8947 13.1659 68.7426 13.1776 68.5487 13.2013C68.5743 13.7237 68.5873 14.2692 68.5873 14.8383C68.5873 15.4625 68.6003 16.0812 68.6258 16.6948C68.7914 16.7286 68.9599 16.7457 69.1288 16.7458C69.6837 16.7458 70.0945 16.5712 70.3615 16.2227C70.6286 15.8741 70.7629 15.4493 70.7629 14.948ZM76.9926 17.5057H75.8467C75.5473 16.5814 75.3178 16.0108 75.1578 15.7943C74.9979 15.5773 74.7399 15.4691 74.3839 15.4691C74.234 15.4691 74.0909 15.4705 73.9544 15.4731C73.9544 16.1443 73.9659 16.8217 73.9893 17.5057H72.9134C72.9469 16.717 72.9638 15.8278 72.9638 14.8387C72.9638 13.8886 72.9469 13.0777 72.9134 12.4065H73.5828C73.6603 12.4065 73.8221 12.4025 74.0686 12.3948C74.315 12.3872 74.5428 12.3831 74.7518 12.3831C75.9361 12.3831 76.5285 12.7929 76.5285 13.6129C76.5285 14.263 76.1905 14.7158 75.5146 14.9721V15.0308C75.7751 15.1037 76.0035 15.3097 76.1995 15.6473C76.3952 15.9853 76.6596 16.6048 76.9926 17.5057ZM75.5412 13.9024C75.5412 13.3828 75.2108 13.1229 74.5503 13.1229C74.3078 13.1229 74.0934 13.1411 73.9079 13.1776C73.9363 13.5823 73.9504 14.1099 73.9504 14.7599C74.0924 14.7654 74.2124 14.7676 74.3103 14.7676C75.1308 14.7679 75.5412 14.4796 75.5412 13.9024ZM82.5408 14.862C82.5408 15.6634 82.2983 16.328 81.813 16.8556C81.3276 17.3828 80.7277 17.6467 80.0132 17.6467C79.3318 17.6467 78.7614 17.4046 78.3023 16.9201C77.8429 16.4359 77.6134 15.8202 77.6134 15.0738C77.6134 14.2724 77.8559 13.6078 78.3413 13.0802C78.8263 12.553 79.4262 12.2891 80.141 12.2891C80.8224 12.2891 81.3925 12.5304 81.8519 13.0135C82.3113 13.4966 82.5408 14.1124 82.5408 14.862ZM81.4728 14.9754C81.4728 14.4296 81.3348 13.987 81.0588 13.6476C80.7824 13.3081 80.4419 13.1386 80.0369 13.1386C79.66 13.1386 79.3401 13.3096 79.077 13.6516C78.814 13.9936 78.6818 14.4256 78.6818 14.9481C78.6818 15.4909 78.8205 15.9328 79.0979 16.2737C79.3754 16.6146 79.7152 16.7849 80.118 16.7849C80.4945 16.7849 80.8149 16.6132 81.0779 16.2697C81.3409 15.9266 81.4728 15.4949 81.4728 14.9754ZM84.7294 17.5057H83.634C83.6675 16.6963 83.6845 15.8074 83.6845 14.8387C83.6845 13.8856 83.6676 13.0748 83.634 12.4065H84.7294C84.6959 13.0646 84.679 13.8751 84.679 14.8387C84.679 15.8227 84.6959 16.7119 84.7294 17.5057ZM90.3396 14.7796C90.3396 15.5212 90.1047 16.1687 89.6352 16.7222C89.1654 17.276 88.5074 17.5524 87.661 17.5524C87.2791 17.5524 86.7526 17.5366 86.0817 17.5053C86.1152 16.7167 86.1322 15.8274 86.1322 14.8383C86.1322 13.8882 86.1153 13.0774 86.0817 12.4061H86.7591C86.8701 12.4061 87.0351 12.4021 87.2546 12.3945C87.4737 12.3868 87.617 12.3828 87.6841 12.3828C88.6155 12.3828 89.2908 12.618 89.7105 13.0879C90.1299 13.5579 90.3396 14.1215 90.3396 14.7796ZM89.2832 14.948C89.2832 14.4467 89.1387 14.0245 88.8497 13.6807C88.5607 13.3376 88.1193 13.1659 87.5259 13.1659C87.4149 13.1659 87.2628 13.1776 87.069 13.2013C87.0945 13.7237 87.1075 14.2692 87.1075 14.8383C87.1075 15.4625 87.1205 16.0812 87.146 16.6948C87.3116 16.7286 87.4801 16.7457 87.6491 16.7458C88.2039 16.7458 88.6147 16.5712 88.8817 16.2227C89.1488 15.8741 89.2832 15.4493 89.2832 14.948ZM97.7825 17.5057H96.5437C96.5437 17.3332 96.4262 16.845 96.1909 16.0407H94.4026C94.1601 16.8319 94.0387 17.32 94.0387 17.5057H92.8742C92.8742 17.4039 93.1754 16.5683 93.7778 14.9991C94.3803 13.4299 94.6815 12.5654 94.6815 12.4065H96.1448C96.1448 12.5552 96.4179 13.4069 96.9635 14.9619C97.509 16.5169 97.7825 17.3646 97.7825 17.5057ZM95.9942 15.2926C95.5528 13.9454 95.3319 13.217 95.3319 13.1072H95.2699C95.2699 13.209 95.0418 13.9374 94.5853 15.2926H95.9942ZM102.297 13.7416C102.297 14.3658 102.068 14.8266 101.61 15.1241C101.152 15.4217 100.59 15.5707 99.9245 15.5707C99.8031 15.5707 99.717 15.5682 99.6651 15.5631C99.6651 16.0542 99.6791 16.7014 99.7076 17.5057H98.6198C98.6533 16.7513 98.6702 15.862 98.6702 14.8387C98.6702 13.8988 98.6533 13.0879 98.6198 12.4065H99.2932C99.3887 12.4065 99.5717 12.4025 99.8427 12.3948C100.114 12.3872 100.348 12.3831 100.547 12.3831C101.037 12.3831 101.452 12.4954 101.79 12.72C102.128 12.9446 102.297 13.2848 102.297 13.7416ZM101.299 13.9571C101.299 13.3985 100.932 13.1189 100.2 13.1189C100.016 13.1189 99.8226 13.1386 99.619 13.1776C99.6475 13.6713 99.6616 14.2298 99.6616 14.854C99.726 14.8595 99.801 14.8616 99.886 14.8616C100.828 14.862 101.299 14.5605 101.299 13.9571ZM106.94 13.7416C106.94 14.3658 106.711 14.8266 106.253 15.1241C105.795 15.4217 105.233 15.5707 104.567 15.5707C104.446 15.5707 104.359 15.5682 104.308 15.5631C104.308 16.0542 104.322 16.7014 104.35 17.5057H103.262C103.296 16.7513 103.313 15.862 103.313 14.8387C103.313 13.8988 103.296 13.0879 103.262 12.4065H103.936C104.031 12.4065 104.214 12.4025 104.485 12.3948C104.756 12.3872 104.991 12.3831 105.19 12.3831C105.68 12.3831 106.094 12.4954 106.432 12.72C106.77 12.9446 106.94 13.2848 106.94 13.7416ZM105.941 13.9571C105.941 13.3985 105.575 13.1189 104.842 13.1189C104.659 13.1189 104.465 13.1386 104.261 13.1776C104.29 13.6713 104.304 14.2298 104.304 14.854C104.368 14.8595 104.443 14.8616 104.528 14.8616C105.47 14.862 105.941 14.5605 105.941 13.9571ZM114.53 14.862C114.53 15.6634 114.287 16.328 113.802 16.8556C113.317 17.3831 112.717 17.6467 112.002 17.6467C111.321 17.6467 110.75 17.4046 110.291 16.9201C109.832 16.4359 109.603 15.8202 109.603 15.0738C109.603 14.2724 109.845 13.6078 110.33 13.0802C110.816 12.5527 111.416 12.2891 112.13 12.2891C112.812 12.2891 113.382 12.5304 113.841 13.0135C114.3 13.4966 114.53 14.1124 114.53 14.862ZM113.462 14.9754C113.462 14.4296 113.324 13.987 113.048 13.6476C112.772 13.3081 112.431 13.1386 112.026 13.1386C111.649 13.1386 111.329 13.3096 111.066 13.6516C110.803 13.9936 110.671 14.4256 110.671 14.9481C110.671 15.4909 110.81 15.9328 111.087 16.2737C111.364 16.6146 111.704 16.7849 112.107 16.7849C112.484 16.7849 112.804 16.6132 113.067 16.2697C113.33 15.9266 113.462 15.4949 113.462 14.9754ZM119.776 17.5057H118.82C118.82 17.3985 118.466 16.8333 117.756 15.8099C117.013 14.7315 116.589 13.9943 116.486 13.5973H116.424C116.489 14.1689 116.521 14.6859 116.521 15.1482C116.521 15.7932 116.539 16.5793 116.576 17.506H115.623C115.662 16.6967 115.681 15.8078 115.681 14.8391C115.681 13.8861 115.662 13.0752 115.623 12.4069H116.773C116.773 12.5454 117.091 13.0978 117.729 14.0636C118.407 15.0895 118.797 15.7855 118.897 16.1512H118.955C118.893 15.569 118.862 15.0469 118.862 14.5846C118.862 13.8773 118.844 13.151 118.808 12.4069H119.776C119.74 13.0544 119.722 13.8652 119.722 14.8391C119.722 15.8202 119.74 16.709 119.776 17.5057Z" fill="#F9F9FA"/>
</g>
<defs>
<linearGradient id="paint0_linear" x1="24.4576" y1="11.7437" x2="24.4576" y2="53.0529" gradientUnits="userSpaceOnUse">
<stop stop-color="#257CB0"/>
<stop offset="0.286" stop-color="#4A93B5"/>
<stop offset="0.767" stop-color="#78BCBB"/>
<stop offset="1" stop-color="#89CFBD"/>
</linearGradient>
<linearGradient id="paint1_linear" x1="14.1646" y1="21.9957" x2="40.2805" y2="21.9957" gradientUnits="userSpaceOnUse">
<stop stop-color="#52C1AD"/>
<stop offset="1" stop-color="#DEE89A"/>
</linearGradient>
<linearGradient id="paint2_linear" x1="27.222" y1="32.399" x2="27.222" y2="53.2036" gradientUnits="userSpaceOnUse">
<stop stop-color="#EC413D"/>
<stop offset="0.167" stop-color="#DA4452"/>
<stop offset="0.575" stop-color="#B0487A"/>
<stop offset="0.862" stop-color="#954A92"/>
<stop offset="1" stop-color="#8A4A9D"/>
</linearGradient>
<linearGradient id="paint3_linear" x1="42.2638" y1="26.8506" x2="42.2638" y2="37.9455" gradientUnits="userSpaceOnUse">
<stop stop-color="#F58879"/>
<stop offset="0.119" stop-color="#F69079"/>
<stop offset="0.713" stop-color="#FCB877"/>
<stop offset="1" stop-color="#FEC874"/>
</linearGradient>
<clipPath id="clip0">
<rect width="184.298" height="61" fill="white" transform="translate(0.340332)"/>
</clipPath>
</defs>
</svg>
