<svg width="160" height="27" viewBox="0 0 160 27" fill="none" xmlns="http://www.w3.org/2000/svg">
<g clip-path="url(#clip0)">
<path d="M153.118 0.0695534C152.391 0.23609 151.553 0.596919 150.933 1.02251C150.239 1.49899 149.493 2.40106 149.125 3.20137C148.748 4.03405 148.631 4.53366 148.599 5.48199C148.571 6.36556 148.627 6.79115 148.864 7.50356C149.544 9.52513 151.161 10.9129 153.318 11.3154C153.943 11.431 155.112 11.3848 155.723 11.2229C156.785 10.9407 157.591 10.4873 158.346 9.73792C158.914 9.16892 159.236 8.70632 159.543 7.99854C159.883 7.21212 159.963 6.83741 159.986 5.90296C160.014 4.96388 159.972 4.60305 159.758 3.93228C159.152 2.04949 157.805 0.749578 155.83 0.157448C155.438 0.0371714 155.345 0.0325451 154.409 0.0186672C153.673 0.00941467 153.328 0.0232935 153.118 0.0695534ZM155.55 1.12891C157.591 1.73492 158.919 3.39566 159.012 5.46811C159.11 7.73486 157.67 9.66391 155.438 10.2607C154.828 10.4226 153.789 10.4318 153.235 10.2792C151.38 9.77493 150.201 8.60455 149.694 6.7634C149.614 6.47196 149.596 6.27767 149.596 5.69016C149.596 5.06565 149.61 4.91762 149.717 4.52441C150.201 2.72026 151.534 1.45736 153.388 1.04102C153.598 0.994757 153.896 0.976253 154.409 0.99013C155.028 1.00401 155.192 1.02251 155.55 1.12891Z" fill="#190D2D"/>
<path d="M151.753 5.75477V8.83569H152.289H152.825V7.53578V6.23587L153.328 6.24975C153.766 6.26825 153.85 6.28213 154.041 6.39316C154.381 6.59208 154.758 7.11482 155.429 8.31295L155.723 8.83569H156.347C156.692 8.83569 156.972 8.82182 156.972 8.80794C156.972 8.79406 156.799 8.50725 156.59 8.17417C155.793 6.89277 155.415 6.40241 155.071 6.18961L154.898 6.08321L155.108 6.05083C155.672 5.95369 156.263 5.47721 156.459 4.95909C156.604 4.58438 156.576 3.9645 156.403 3.63143C156.184 3.22434 155.867 2.95603 155.425 2.80799C155.154 2.7201 155.001 2.71085 153.444 2.69234L151.753 2.67384V5.75477ZM154.786 3.6083C155.047 3.67769 155.262 3.84422 155.378 4.0709C155.504 4.3207 155.509 4.53813 155.392 4.79256C155.196 5.21352 154.894 5.3153 153.701 5.3523L152.825 5.38006V4.44098V3.5019L153.724 3.53428C154.213 3.55278 154.693 3.58517 154.786 3.6083Z" fill="#190D2D"/>
<path d="M53.3489 8.4657V13.0917L52.9435 12.6846C52.1235 11.8751 51.1404 11.4772 49.5981 11.3292C47.562 11.1395 45.8148 11.7594 44.4776 13.1426C43.1869 14.4749 42.4648 16.3022 42.3716 18.4579C42.3063 19.9428 42.5766 21.2751 43.1916 22.5056C44.0769 24.2774 45.675 25.4755 47.7344 25.9058C48.3914 26.0445 49.6307 26.0816 50.2038 25.9844C51.336 25.7855 52.3751 25.2628 53.1392 24.4995C53.3489 24.2959 53.5632 24.06 53.6191 23.986L53.7169 23.8472L53.7216 24.7816V25.7207H55.7484H57.7752V14.7802V3.83968H55.562H53.3489V8.4657ZM51.2801 15.2659C51.8812 15.4186 52.2959 15.6499 52.7245 16.0755C53.3582 16.7046 53.6564 17.4217 53.7076 18.4579C53.8241 20.8079 52.3471 22.3067 50.0268 22.1911C49.4257 22.1633 49.0856 22.0801 48.6057 21.858C47.7437 21.4555 47.1613 20.72 46.9097 19.7162C46.7653 19.1564 46.7653 18.1433 46.9144 17.6021C47.1334 16.7879 47.59 16.1217 48.2143 15.7147C48.6896 15.4047 49.1229 15.2521 49.8311 15.1549C50.1153 15.1133 50.9307 15.178 51.2801 15.2659Z" fill="#190D2D"/>
<path d="M140.151 8.47037V13.101L139.844 12.7726C139.15 12.0278 138.143 11.5559 136.853 11.3709C136.266 11.2876 135.003 11.3015 134.504 11.394C131.513 11.9769 129.486 14.5536 129.193 18.1434C129.104 19.2675 129.249 20.535 129.584 21.5342C130.367 23.8519 132.114 25.3877 134.56 25.9104C134.98 26.003 135.189 26.0168 136.028 26.0168C136.946 26.0168 137.034 26.0076 137.458 25.8919C138.451 25.619 139.294 25.1472 139.942 24.4995C140.151 24.296 140.366 24.06 140.422 23.986L140.52 23.8472L140.524 24.7817V25.7208H142.551H144.578V14.7803V3.83973H142.365H140.151V8.47037ZM138.073 15.266C138.707 15.4233 139.094 15.6453 139.546 16.094C139.993 16.5381 140.207 16.9128 140.394 17.5559C140.538 18.0555 140.547 19.2305 140.412 19.7301C140.086 20.9467 139.28 21.7748 138.101 22.094C137.673 22.2143 136.48 22.2143 136.051 22.0986C134.872 21.784 134.024 20.9236 133.722 19.7393C133.461 18.7124 133.61 17.4911 134.099 16.6677C134.57 15.8812 135.469 15.3169 136.48 15.1735C136.904 15.1133 137.649 15.155 138.073 15.266Z" fill="#190D2D"/>
<path d="M119.45 4.56609C119.049 5.24611 117.228 8.7295 116.585 10.0387C114.395 14.512 113.263 17.4357 113.072 19.1195C112.969 20.0124 113.146 21.0995 113.538 22.0385C114.395 24.0647 116.245 25.5219 118.434 25.8828C118.816 25.9475 119.087 25.9614 119.739 25.9383C120.457 25.9198 120.624 25.8966 121.095 25.7764C122.348 25.4479 123.299 24.8928 124.193 23.9583C124.804 23.3292 125.204 22.7047 125.521 21.909C125.852 21.0717 126.02 19.9522 125.936 19.1473C125.712 16.9453 123.569 11.9816 120.033 5.44503C119.762 4.94542 119.525 4.5337 119.506 4.5337C119.487 4.5337 119.459 4.54758 119.45 4.56609ZM116.114 16.2375C115.974 20.2113 115.97 20.1234 116.319 21.1504C116.436 21.4834 116.529 21.8026 116.529 21.8628C116.529 22.1172 116.109 22.1866 115.713 22.0015C115.238 21.7841 114.842 21.2244 114.684 20.549C114.474 19.6561 114.73 18.4904 115.825 15.3817C116.081 14.6508 116.137 14.5305 116.147 14.6647C116.156 14.7526 116.142 15.4604 116.114 16.2375Z" fill="#190D2D"/>
<path d="M87.4593 4.72326C85.3673 4.88055 83.3871 5.53282 81.8356 6.56904C79.5059 8.13264 78.0383 10.478 77.5257 13.4664C77.3999 14.1973 77.3533 15.9599 77.4326 16.774C77.8752 21.1826 80.5869 24.4856 84.7616 25.7161C85.9125 26.0538 86.7977 26.1833 88.2235 26.2157C91.3126 26.2851 94.2107 25.7207 96.6708 24.5642L97.2392 24.2913V18.9251V13.5543H93.1856H89.132V15.636V17.7177H90.9725H92.8129V19.36V21.0022L92.4541 21.1826C90.6416 22.0847 88.0371 22.279 86.2107 21.6452C84.1792 20.9374 82.7674 19.2767 82.2782 17.0146C82.1524 16.4502 82.1058 15.1318 82.1897 14.4934C82.6789 10.5798 85.9218 8.32693 90.0592 9.02546C91.252 9.22438 92.2351 9.6916 93.1763 10.5012C93.386 10.6769 93.563 10.825 93.577 10.825C93.5956 10.825 96.5543 7.59139 96.6894 7.42486C96.764 7.32771 96.7593 7.31846 96.4285 7.0409C95.683 6.42101 94.6859 5.85201 93.6795 5.48193C92.0161 4.8713 89.5234 4.56598 87.4593 4.72326Z" fill="#190D2D"/>
<path d="M0 7.23977V9.25209H2.95865H5.9173V17.4864V25.7207H8.20035H10.4834V17.4864V9.25209H13.4188H16.3541V7.23977V5.22745H8.17705H0V7.23977Z" fill="#190D2D"/>
<path d="M23.2266 11.3384C21.8335 11.5281 20.7852 12.2497 20.0071 13.5543L19.8021 13.9012V12.754V11.6114H17.5889H15.3757V18.666V25.7207H17.5842H19.7974L19.816 22.0569C19.8347 18.9991 19.8486 18.3191 19.9092 17.9721C20.2307 16.1402 21.074 15.3492 22.9005 15.1688C23.5109 15.1086 24.0094 15.141 24.7735 15.2937C25.0857 15.3538 25.3559 15.4047 25.3699 15.4047C25.3839 15.4047 25.3932 14.5119 25.3932 13.4201V11.4356L25.1742 11.3801C24.8807 11.3107 23.6413 11.2783 23.2266 11.3384Z" fill="#190D2D"/>
<path d="M33.0112 11.32C31.222 11.4634 29.6425 11.9676 28.4031 12.7864C27.9791 13.0686 27.5179 13.4433 27.4992 13.5266C27.4899 13.5728 28.8458 15.0485 29.5633 15.7702L29.7683 15.9737L30.2063 15.562C30.9471 14.8681 31.7765 14.4564 32.7223 14.313C33.8032 14.1464 34.7398 14.4148 35.4107 15.0809C35.8347 15.5019 36.1049 16.0755 36.1096 16.5659V16.7324L34.982 16.7648C34.3577 16.7833 33.5656 16.8157 33.2208 16.8434C29.1952 17.1441 27.0845 18.4024 26.6233 20.7709C26.5348 21.2289 26.5348 22.2281 26.6233 22.6444C27.01 24.4625 28.5056 25.693 30.6769 25.9937C31.1847 26.0631 32.1399 26.0584 32.6617 25.9752C33.985 25.7762 35.1544 25.1795 35.8254 24.3699L36.0863 24.0507L36.1003 24.8881L36.1096 25.7207H38.141H40.1678L40.1492 21.2428C40.1306 16.3947 40.1352 16.4548 39.865 15.3353C39.3292 13.1426 38.0758 11.9398 35.8627 11.5004C35.0147 11.3292 33.8126 11.2552 33.0112 11.32ZM36.1096 20.2297C36.1096 21.1687 35.9605 21.599 35.462 22.1078C34.5627 23.0238 32.7689 23.3661 31.66 22.8295C31.0776 22.5519 30.7887 22.1263 30.7933 21.5527C30.7933 20.9744 31.0682 20.5488 31.66 20.1926C32.3682 19.7717 33.4352 19.5913 35.2849 19.5728L36.1096 19.5681V20.2297Z" fill="#190D2D"/>
<path d="M67.7741 11.3384C65.7566 11.528 63.9861 12.3468 62.7048 13.6838C61.526 14.9189 60.883 16.4964 60.8178 18.3514C60.7386 20.521 61.4142 22.3668 62.8073 23.7777C63.8929 24.8787 65.2953 25.5865 67.0472 25.9196C67.7741 26.0537 69.4514 26.0676 70.0991 25.9381C71.8044 25.5957 73.1136 24.925 74.2132 23.8286C74.4788 23.5649 74.6885 23.3336 74.6792 23.3105C74.6698 23.2781 72.261 21.4832 71.7252 21.1085L71.5807 21.0067L71.2546 21.3861C70.8679 21.8441 70.4672 22.154 69.9593 22.3945C68.9855 22.8571 67.6995 22.8109 66.7723 22.2881C66.4229 22.0892 65.9197 21.6081 65.696 21.2473C65.5143 20.9605 65.272 20.4239 65.2115 20.1556L65.1835 20.0307H70.2621H75.3408V19.161C75.3408 16.8248 74.9587 15.3029 74.0269 13.9197C73.6774 13.4016 73.0344 12.7447 72.5312 12.407C71.8183 11.9212 70.9051 11.5604 69.9826 11.3985C69.4794 11.3152 68.3658 11.2829 67.7741 11.3384ZM69.0507 14.5534C70.0571 14.8449 70.7886 15.7238 70.8958 16.7693L70.9284 17.07H68.0536H65.1742L65.2068 16.8757C65.4211 15.6313 66.4136 14.6876 67.7228 14.4794C68.0909 14.4239 68.7292 14.4563 69.0507 14.5534Z" fill="#190D2D"/>
<path d="M108.464 11.3338C107.033 11.5142 106.045 12.1942 105.179 13.6005L105.02 13.855V12.7309V11.6114H102.807H100.594V18.666V25.7207H102.802H105.016L105.034 22.006C105.048 18.9112 105.067 18.2312 105.127 17.9166C105.486 16.0246 106.353 15.2844 108.352 15.1503C108.855 15.1179 109.377 15.1641 110.094 15.3122C110.337 15.3631 110.551 15.4047 110.574 15.4047C110.593 15.4047 110.611 14.5119 110.611 13.4201V11.4356L110.369 11.3801C110.052 11.3107 108.86 11.2829 108.464 11.3338Z" fill="#190D2D"/>
</g>
<defs>
<clipPath id="clip0">
<rect width="160" height="26.2295" fill="white"/>
</clipPath>
</defs>
</svg>
